<svg xmlns="http://www.w3.org/2000/svg" version="1.0" width="224.000000pt" height="225.000000pt" viewBox="0 0 224.000000 225.000000" preserveAspectRatio="xMidYMid meet">

<g transform="translate(0.000000,225.000000) scale(0.100000,-0.100000)" fill="#000000" stroke="none">
<path d="M1234 2063 c-54 -65 -101 -120 -104 -123 -3 -3 -59 -69 -124 -148 -104 -124 -120 -140 -130 -125 -6 10 -32 60 -56 112 -96 202 -104 216 -128 219 -12 2 -24 -3 -27 -10 -3 -8 30 -90 75 -182 44 -93 80 -169 80 -171 0 -1 -14 -5 -30 -9 -92 -18 -233 -109 -332 -214 -76 -81 -125 -164 -164 -277 -25 -72 -27 -94 -28 -225 0 -124 3 -157 23 -225 102 -350 410 -607 637 -531 67 22 702 414 728 449 27 37 28 120 2 160 -10 15 -62 53 -115 86 -53 32 -127 77 -164 100 -98 60 -93 61 -100 -9 -12 -137 -83 -242 -203 -301 -84 -41 -218 -52 -319 -24 l-64 17 -4 97 c-2 65 -3 44 -5 -67 l-2 -162 -37 19 c-93 47 -178 170 -202 292 -55 268 72 540 304 655 77 38 82 39 185 39 92 -1 112 -4 162 -27 112 -52 194 -167 205 -286 l5 -57 57 27 c157 77 350 48 465 -69 96 -97 113 -224 51 -383 -42 -108 -116 -203 -230 -293 -80 -63 -262 -147 -319 -147 -18 0 -223 -147 -214 -154 8 -8 182 17 258 36 323 81 576 297 654 558 20 68 22 216 2 287 -35 129 -119 228 -244 290 -66 33 -85 38 -167 41 -69 3 -106 0 -141 -12 -65 -22 -71 -21 -79 17 -18 82 -86 176 -168 230 -61 41 -161 77 -211 77 -19 0 -37 4 -40 8 -3 5 14 31 38 58 23 27 115 136 204 242 139 166 160 196 152 213 -6 10 -17 19 -24 19 -8 0 -58 -53 -112 -117z"/>
</g>
</svg>
